<svg xmlns="http://www.w3.org/2000/svg" viewBox="0 0 250 250"><defs><style>.cls-1{fill:#fe7e7d;}.cls-2{fill:#ff9d9e;}.cls-3{fill:#bf7677;}.cls-4{fill:#e85358;}.cls-5{fill:#762a2d;}.cls-6{fill:none;stroke:#000;stroke-linecap:round;stroke-linejoin:round;stroke-width:2px;}</style></defs><title>logo</title><g id="Layer_1" data-name="Layer 1"><rect class="cls-1" x="89" y="95.52" width="72" height="72" transform="translate(-56.38 126.91) rotate(-45)"/><rect class="cls-2" x="38.09" y="44.6" width="72" height="72" transform="translate(-35.3 76) rotate(-45)"/><polygon class="cls-3" points="74.09 131.52 74.26 175.91 23.53 125 23.18 80.6 74.09 131.52"/><polygon class="cls-4" points="125 182.43 125.17 226.82 74.44 175.91 74.09 131.52 125 182.43"/><polygon class="cls-5" points="125.17 182.43 125 226.82 175.74 175.91 176.09 131.52 125.17 182.43"/><polygon class="cls-3" points="176.09 131.52 175.91 175.91 226.65 125 227 80.6 176.09 131.52"/><rect class="cls-2" x="139.91" y="44.6" width="72" height="72" transform="translate(-5.47 148) rotate(-45)"/></g><g id="Layer_2" data-name="Layer 2"><circle class="cls-5" cx="110.49" cy="131.52" r="4.21"/><circle class="cls-5" cx="139.98" cy="131.52" r="4.21"/><path class="cls-6" d="M110.49,144.24s14.49,16.25,29.49,0"/></g></svg>