<svg xmlns="http://www.w3.org/2000/svg" viewBox="0 0 750 1334"><defs><style>.cls-1,.cls-3{fill:#fff;}.cls-2{fill:#7420bc;}.cls-3{font-size:27px;font-family:Raleway-Bold, Raleway;font-weight:700;letter-spacing:0.1em;}.cls-4{letter-spacing:0.05em;}.cls-5{letter-spacing:0.1em;}.cls-6{letter-spacing:0.07em;}.cls-10,.cls-11,.cls-12,.cls-13,.cls-19,.cls-7,.cls-8,.cls-9{fill:none;}.cls-7,.cls-8{stroke:#6e8dff;}.cls-10,.cls-11,.cls-12,.cls-13,.cls-7,.cls-8,.cls-9{stroke-miterlimit:10;}.cls-10,.cls-13,.cls-7,.cls-9{stroke-width:5px;}.cls-8{stroke-width:16.07px;}.cls-9{stroke:#ea3b3b;}.cls-10{stroke:#5ec93a;}.cls-11{stroke:#40cbe2;stroke-width:7.86px;}.cls-12{stroke:#e5d03e;stroke-width:7.5px;}.cls-13{stroke:#cecece;}.cls-14{fill:#fe7e7d;}.cls-15{fill:#ff9d9e;}.cls-16{fill:#bf7677;}.cls-17{fill:#e85358;}.cls-18{fill:#762a2d;}.cls-19{stroke:#000;stroke-linecap:round;stroke-linejoin:round;stroke-width:2px;}</style></defs><title>background</title><g id="Signup"><rect id="BG" class="cls-1" width="750" height="1334"/><g id="Cover"><path class="cls-2" d="M750,514l-310.82-1.66a65,65,0,0,0-65.36,63.83h0a65,65,0,0,1-65,63.83H0V0H750Z"/><text class="cls-3" transform="translate(264.65 163.77)">HEL<tspan class="cls-4" x="60.21" y="0">L</tspan><tspan class="cls-5" x="77.46" y="0">O</tspan><tspan class="cls-6" x="100.57" y="0"> </tspan><tspan class="cls-5" x="109" y="0">THERE,</tspan></text><circle class="cls-7" cx="288.5" cy="417.5" r="7"/><circle class="cls-8" cx="194.5" cy="635.5" r="22.5"/><circle class="cls-9" cx="670.5" cy="80.5" r="7"/><circle class="cls-10" cx="677.5" cy="392.5" r="7"/><circle class="cls-11" cx="586" cy="258" r="11"/><circle class="cls-10" cx="92.5" cy="170.5" r="7"/><circle class="cls-12" cx="205" cy="229" r="10.5"/><circle class="cls-12" cx="498" cy="549" r="10.5"/><circle class="cls-13" cx="418.5" cy="44.5" r="7"/><circle class="cls-13" cx="125.5" cy="538.5" r="7"/><rect class="cls-14" x="336.8" y="294.42" width="72" height="72" transform="translate(-124.45 360.38) rotate(-45)"/><rect class="cls-15" x="285.88" y="243.51" width="72" height="72" transform="translate(-103.37 309.47) rotate(-45)"/><polygon class="cls-16" points="321.88 330.42 322.06 374.82 271.32 323.9 270.97 279.51 321.88 330.42"/><polygon class="cls-17" points="372.8 381.33 372.97 425.73 322.23 374.82 321.88 330.42 372.8 381.33"/><polygon class="cls-18" points="372.97 381.33 372.8 425.73 423.53 374.82 423.88 330.42 372.97 381.33"/><polygon class="cls-16" points="423.88 330.42 423.71 374.82 474.44 323.9 474.79 279.51 423.88 330.42"/><rect class="cls-15" x="387.71" y="243.51" width="72" height="72" transform="translate(-73.54 381.47) rotate(-45)"/><circle class="cls-18" cx="358.29" cy="330.42" r="4.21"/><circle class="cls-18" cx="387.77" cy="330.42" r="4.21"/><path class="cls-19" d="M358.29,343.14s14.49,16.26,29.48,0"/></g></g></svg>